<svg xmlns="http://www.w3.org/2000/svg" viewBox="0 0 64 64">
  <circle cx="32" cy="32" r="31" fill="#0c231d"/>
  <circle cx="32" cy="32" r="27" fill="none" stroke="#d1aa52" stroke-width="1.4"/>
  <path d="M32 14v31" stroke="#d1aa52" stroke-width="2.4"/>
  <path d="M17 20.5Q32 16.5 47 20.5" fill="none" stroke="#d1aa52" stroke-width="2.2" stroke-linecap="round"/>
  <path d="M17 20.5 12.6 31M17 20.5 21.4 31M47 20.5 42.6 31M47 20.5 51.4 31" stroke="#d1aa52" stroke-width="1.1"/>
  <path d="M11 31h12a6 3.4 0 0 1-12 0Z" fill="#d1aa52"/>
  <path d="M41 31h12a6 3.4 0 0 1-12 0Z" fill="#d1aa52"/>
  <path d="M32 21.5 33.76 26.57 39.13 26.68 34.85 29.93 36.41 35.07 32 32 27.59 35.07 29.15 29.93 24.87 26.68 30.24 26.57Z" fill="#f1dc9f" stroke="#0c231d" stroke-width="0.8" stroke-linejoin="round"/>
  <path d="M26 45h12l2.2 3.6H23.8Z" fill="#d1aa52"/>
</svg>
